<svg xmlns="http://www.w3.org/2000/svg"  viewBox="0 0 48 48" width="48px" height="48px"><path fill="#b2001a" d="M21.162,41.033c0,0-12.587,0.99-12.163-9.193c0,0-0.424,1.131-1.697,1.697 c0,0-0.99-2.829,2.263-5.092s-0.141,0-0.141,0L6.878,28.87c0,0,0.566-4.102,4.95-3.394c0,0-1.273-5.799,1.556-12.163 c0,0-1.98-5.233,3.819-9.759c0,0,1.556,1.414,1.98,6.364c0,0,2.687-0.99,3.253-3.677l-0.424,2.546c0,0,2.121-4.667,5.516-2.121 l-2.121,0.99c0,0,5.516-1.273,6.082,1.273c0,0-0.849-0.849-2.404,0.283c0,0,1.672-0.072,3.319,1.559 c0.467,0.462,0.699,2.041,1.176,2.598c1.2,1.401,2.344,3.076,3.001,4.895c1.839,5.092,1.98,6.364,1.98,6.364l3.112,3.112 c0,0-7.876,10.532-10.667,12.988c-0.937,0.824-2.192,1.184-3.432,1.042L21.162,41.033z"/><path fill="#fadaa8" d="M24.415,42.589c0,0-12.163-2.546-12.446-8.91s6.364-5.092,6.364-5.092s-5.516-11.456,0.707-14.85 s11.032,9.9,11.456,12.87c0,0,0.99-0.99,3.536-1.273c0,0-4.95-12.163-0.849-11.597s5.516,10.89,5.516,10.89 s2.121-0.141,2.263-2.687c0,0,0.99,1.98,0,3.112c0,0,2.404,0.849,2.97,3.819l-1.697-1.131c0,0,1.98,2.687-1.273,6.789 c-3.253,4.102-8.769,5.657-8.769,5.657S31.487,44.286,24.415,42.589z"/><path fill="#fadaa8" d="M16.212,12.181c0,0-1.98-2.97,0.707-6.93C16.919,5.25,19.607,10.625,16.212,12.181z"/><path fill="#fff" d="M32.194,26.89c0,0-3.196,2.016-4.93,4.201l-3.98,0.325c0,0-1.131,11.456,4.95,10.466 c2.701-0.44,3.39-2.666,3.325-5.004c0.702-0.138,1.447-0.421,2.236-0.891c1.557-0.928,2.833-2.325,3.43-4.037 C37.931,29.927,37.71,27.314,32.194,26.89z"/><path fill="#252525" d="M24.415,31.981c0,0-0.283,8.91,3.677,8.345c0,0,1.98,0,2.404-3.677 C30.497,36.648,26.597,36.11,24.415,31.981z"/><path fill="#ffb6b6" d="M26.395,36.365c-0.538,0-1.026,0.343-1.415,0.892c0.494,1.799,1.409,3.311,3.112,3.068 c0,0,0.235-0.004,0.557-0.151C28.603,38.059,27.615,36.365,26.395,36.365z"/><path fill="#fff" d="M26.075,29.002c0.596-1.299,0.723-3.251,0.226-5.313c-0.805-3.341-2.936-5.694-4.758-5.254 c-1.822,0.439-2.647,3.504-1.842,6.845c0.285,1.18,0.737,2.233,1.28,3.087C22.203,28.083,23.918,28.084,26.075,29.002z"/><path fill="#fff" d="M37.057,25.027c-0.004-0.03-0.008-0.06-0.012-0.09c-0.528-3.712-1.462-6.649-2.087-6.56 c-0.624,0.089-0.703,3.17-0.175,6.882c0.018,0.127,0.038,0.251,0.057,0.376c0.427-0.305,0.915-0.514,1.451-0.59 C36.549,25.007,36.805,25.003,37.057,25.027z"/><path fill="#252525" d="M33.611,11.725c-0.945-1.46-2.906-2.701-4.552-2.526c2.051,0.388,3.741,2.051,4.178,4.066 c-2.904,1.595-6.192-0.759-7.987-3.116c1.706,2.976,5.413,5.769,8.903,3.883l0.342-0.155C34.403,13.08,34.014,12.349,33.611,11.725 z"/><path fill="#252525" d="M25.068,27.993c0.324-0.365,0.527-0.875,0.527-1.444c0-1.107-0.764-2.004-1.706-2.004 s-1.706,0.897-1.706,2.004c0,0.418,0.11,0.806,0.296,1.127c-1.022,0.075-2.019,0.359-2.815,0.853c0,0,0.054,0.156,0.054,0.156 c2.665-0.081,4.956,0.377,7.537,0.822C26.734,28.779,25.95,28.292,25.068,27.993z"/><ellipse cx="35.579" cy="24.365" fill="#252525" rx=".903" ry="1.553"/><path fill="#252525" d="M28.466,28.156c2.094-2.818,6.046-4.009,9.389-2.838c0,0-0.453,1.175-0.453,1.175 C34.422,25.038,30.79,25.77,28.466,28.156L28.466,28.156z"/><ellipse cx="35.676" cy="28.369" fill="#b2001a" rx="4.767" ry="3.394" transform="rotate(-18.377 35.683 28.372)"/><ellipse cx="34.316" cy="27.314" fill="#fff" rx="2.263" ry="1.131" transform="rotate(-26.906 34.318 27.315)"/><rect width="2.546" height="3.25" x="27.112" y="35.053" fill="#fff"/><rect width="2.546" height="3.25" x="33.214" y="34.494" fill="#fff" transform="rotate(-14.264 34.493 36.124)"/><path fill="#252525" d="M24.48,31.923c4.471,5.443,8.369,6.411,13.05,0.539c-0.562,1.315-1.317,2.588-2.436,3.59 c-2.358,2.386-6.08,1.809-8.248-0.51c-1.059-1.027-1.888-2.239-2.482-3.551L24.48,31.923L24.48,31.923z"/><path fill="#fadaa8" d="M19.312,24.897c0,0,1.219-3.954,5.444-5.119c0,0-2.681-3.873-5.308-1.083 S19.312,24.897,19.312,24.897z"/><path fill="#fadaa8" d="M34.126,21.16c0,0,0.704-1.544,1.977-2.058c1.273-0.515-1.49-2.167-1.49-2.167l-0.758,3.358 L34.126,21.16z"/></svg>