<!-- icon666.com - MILLIONS OF FREE VECTOR ICONS --><svg version="1.1" id="Capa_1" xmlns="http://www.w3.org/2000/svg" xmlns:xlink="http://www.w3.org/1999/xlink" x="0px" y="0px" viewBox="0 0 512 512" style="enable-background:new 0 0 512 512;" xml:space="preserve"><path style="fill:#FD4FB6;" d="M512,256c0,141.385-114.615,256-256,256S0,397.385,0,256c141.385,0,256-114.615,256-256 C397.385,0,512,114.615,512,256z"></path><path style="fill:#ADE8F0;" d="M440,10v68.033V90v160c0,5.523-4.477,10-10,10H0.056c-0.021-1.433-0.048-2.863-0.052-4.3 C0.166,114.453,114.715,0,256,0c2.524,0,174,0,174,0C435.523,0,440,4.477,440,10z"></path><path style="fill:#84DEEA;" d="M440,222.5V250c0,5.523-4.477,10-10,10H0.056c-0.021-1.433-0.048-2.863-0.052-4.3 c0.009-7.823,0.389-15.557,1.084-23.2H430C435.523,232.5,440,228.023,440,222.5z"></path><path style="fill:#69C3DA;" d="M420,25L420,25c0,5.523-4.477,10-10,10s-10-4.477-10-10l0,0c0-5.523,4.477-10,10-10 S420,19.477,420,25z M380,25c0-5.523-4.477-10-10-10s-10,4.477-10,10l0,0c0,5.523,4.477,10,10,10S380,30.523,380,25L380,25z M290,15 c-5.523,0-10,4.477-10,10l0,0c0,5.523,4.477,10,10,10s10-4.477,10-10l0,0C300,19.477,295.523,15,290,15z M250,35 c5.523,0,10-4.477,10-10l0,0c0-5.523-4.477-10-10-10s-10,4.477-10,10l0,0C240,30.523,244.477,35,250,35z M210,35 c5.523,0,10-4.477,10-10l0,0c0-5.523-4.477-10-10-10s-10,4.477-10,10l0,0C200,30.523,204.477,35,210,35z M290,110h-80 c-5.523,0-10,4.477-10,10v20c0,5.523,4.477,10,10,10h80c5.523,0,10-4.477,10-10v-20C300,114.477,295.523,110,290,110z M290,170h-40 c-5.523,0-10,4.477-10,10v20c0,5.523,4.477,10,10,10h40c5.523,0,10-4.477,10-10v-20C300,174.477,295.523,170,290,170z M210,170h-50 c-5.523,0-10,4.477-10,10v20c0,5.523,4.477,10,10,10h50c5.523,0,10-4.477,10-10v-20C220,174.477,215.523,170,210,170z M290,50h-40 c-5.523,0-10,4.477-10,10v20c0,5.523,4.477,10,10,10h40c5.523,0,10-4.477,10-10V60C300,54.477,295.523,50,290,50z M350,50h-20 c-5.523,0-10,4.477-10,10v20c0,5.523,4.477,10,10,10h20c5.523,0,10-4.477,10-10V60C360,54.477,355.523,50,350,50z M160,80V60 c0-5.523-4.477-10-10-10h-20c-5.523,0-10,4.477-10,10v20c0,5.523,4.477,10,10,10h20C155.523,90,160,85.523,160,80z M190,90h20 c5.523,0,10-4.477,10-10V60c0-5.523-4.477-10-10-10h-20c-5.523,0-10,4.477-10,10v20C180,85.523,184.477,90,190,90z M350,110h-20 c-5.523,0-10,4.477-10,10v20c0,5.523,4.477,10,10,10h20c5.523,0,10-4.477,10-10v-20C360,114.477,355.523,110,350,110z M410,110h-20 c-5.523,0-10,4.477-10,10v20c0,5.523,4.477,10,10,10h20c5.523,0,10-4.477,10-10v-20C420,114.477,415.523,110,410,110z M410,50h-20 c-5.523,0-10,4.477-10,10v20c0,5.523,4.477,10,10,10h20c5.523,0,10-4.477,10-10V60C420,54.477,415.523,50,410,50z M80,120v20 c0,5.523,4.477,10,10,10h20c5.523,0,10-4.477,10-10v-20c0-5.523-4.477-10-10-10H90C84.477,110,80,114.477,80,120z M90,90 c5.523,0,10-4.477,10-10V60c0-2.091-0.644-4.031-1.741-5.636C85.605,64.277,73.915,75.36,63.336,87.441 C65.106,89.027,67.437,90,70,90H90z M50,150c5.523,0,10-4.477,10-10v-20c0-5.523-4.477-10-10-10h-4.291 c-8.302,11.936-15.612,24.61-21.815,37.907C25.584,149.214,27.698,150,30,150H50z M120,170H14.822 c-4.597,12.89-8.198,26.251-10.693,40H120c5.523,0,10-4.477,10-10v-20C130,174.477,125.523,170,120,170z M170,150 c5.523,0,10-4.477,10-10v-20c0-5.523-4.477-10-10-10h-20c-5.523,0-10,4.477-10,10v20c0,5.523,4.477,10,10,10H170z M350,170h-20 c-5.523,0-10,4.477-10,10v20c0,5.523,4.477,10,10,10h20c5.523,0,10-4.477,10-10v-20C360,174.477,355.523,170,350,170z M410,170h-20 c-5.523,0-10,4.477-10,10v20c0,5.523,4.477,10,10,10h20c5.523,0,10-4.477,10-10v-20C420,174.477,415.523,170,410,170z"></path><path style="fill:#22B27F;" d="M300,120v20c0,5.523-4.477,10-10,10h-80c-5.523,0-10-4.477-10-10v-20c0-5.523,4.477-10,10-10h80 C295.523,110,300,114.477,300,120z"></path><path style="fill:#FFEEE6;" d="M402.808,247.489v149.018c0,8.78-5.833,16.189-13.832,18.587v49.029H237.545V423.72 c0-5.319-4.311-9.63-9.63-9.63v-0.019c-7.741-0.116-14.987-4.872-17.88-12.556l-45.619-126.829 c-3.777-10.033,1.295-21.227,11.327-25.004l2.505-0.943c10.033-3.776,21.227,1.295,25.004,11.327l29.284,83.439 c1.014,2.695,5.01,1.967,5.01-0.912V149.409c0-10.719,8.69-19.409,19.409-19.409h2.677c10.72,0,19.409,8.69,19.409,19.409v78.67 h104.358C394.118,228.08,402.808,236.769,402.808,247.489z"></path><path style="fill:#FFDFCF;" d="M257.676,410.779v62.267l-20.131,12.939v-62.267c0-5.318-4.312-9.63-9.63-9.63v-0.019 c-7.741-0.116-14.987-4.872-17.88-12.556l-45.619-126.829c-3.777-10.032,1.295-21.227,11.327-25.004l2.505-0.943 c2.155-0.811,4.363-1.191,6.54-1.224c-1.811,4.388-2.045,9.438-0.24,14.231l45.619,126.828c2.893,7.684,10.139,12.44,17.88,12.556 v0.02C253.365,401.149,257.676,405.461,257.676,410.779z M237.545,149.409v193.184c0,1.477-1.051,2.382-2.212,2.555l-0.001,0.002 c0,0,1.876-0.001,2.007-0.003c11.192-0.209,20.201-9.347,20.201-20.59V133.269c0-1.116,0.102-2.206,0.284-3.269h-0.868 C246.234,130,237.545,138.69,237.545,149.409z M360.229,228.08v85.201c0,5.521,4.476,9.997,9.997,9.997s9.997-4.476,9.997-9.997 V228.08H360.229z M279.118,313.281c0,5.521,4.476,9.997,9.997,9.997s9.997-4.476,9.997-9.997V228.08h-19.994L279.118,313.281 L279.118,313.281z M319.673,313.281c0,5.521,4.476,9.997,9.997,9.997s9.997-4.476,9.997-9.997V228.08h-19.994L319.673,313.281 L319.673,313.281z"></path><path style="fill:#003C79;" d="M410,457.419v3.086C367.145,492.827,313.814,512,256,512c-14.324,0-28.367-1.196-42.051-3.458 v-51.124c0-7.146,5.793-12.939,12.94-12.939h170.172C404.207,444.479,410,450.272,410,457.419z"></path><path style="fill:#004B92;" d="M410,457.419v3.086C367.145,492.827,313.814,512,256,512c-5.433,0-10.822-0.189-16.171-0.523v-54.058 c0-7.146,5.793-12.939,12.939-12.939H397.06C404.207,444.479,410,450.272,410,457.419z"></path><path style="fill:#002C5D;" d="M252.768,483.298c0,7.146-5.793,12.94-12.94,12.94c-7.146,0-12.94-5.793-12.94-12.94 s5.793-12.94,12.94-12.94S252.768,476.152,252.768,483.298z"></path></svg>