<svg width="30" height="30" viewBox="0 0 30 30" fill="none" xmlns="http://www.w3.org/2000/svg">
<g clip-path="url(#clip0_8_7)">
<path d="M9.81246 0.925584C12.9002 -0.212496 16.2765 -0.303591 19.4211 0.666336C21.5961 1.33721 23.5768 2.48993 25.2236 4.02369L26.7992 2.44808C27.9804 1.26689 30 2.10345 30 3.77391V11.25H22.5238C20.8534 11.25 20.0169 9.2304 21.198 8.04921L22.5697 6.67757C21.3544 5.5722 19.9042 4.73966 18.3158 4.24974C15.9574 3.5223 13.4251 3.59063 11.1093 4.44418C8.79354 5.29776 6.82269 6.88918 5.50052 8.97324C4.17833 11.0573 3.57818 13.5183 3.79253 15.9771C4.00689 18.4359 5.02388 20.7559 6.68676 22.5797C8.34966 24.4035 10.5661 25.6299 12.9947 26.0698C15.4233 26.5097 17.9291 26.1388 20.1261 25.0142C22.3232 23.8898 24.0892 22.0738 25.1526 19.8465C25.5986 18.912 26.7178 18.516 27.6525 18.9621C28.587 19.4081 28.9828 20.5275 28.5367 21.462C27.1191 24.4316 24.7642 26.8528 21.8349 28.3524C18.9054 29.8519 15.5644 30.3463 12.3263 29.7598C9.0882 29.1731 6.13286 27.5381 3.91568 25.1063C1.69849 22.6746 0.342516 19.5812 0.0566989 16.3028C-0.229116 13.0244 0.571089 9.74306 2.334 6.96431C4.09693 4.18556 6.72473 2.06366 9.81246 0.925584Z" fill="#272C43"/>
</g>
<defs>
<clipPath id="clip0_8_7">
<rect width="30" height="30" fill="white"/>
</clipPath>
</defs>
</svg>
