<svg width="33" height="34" viewBox="0 0 33 34" fill="none" xmlns="http://www.w3.org/2000/svg">
<path d="M12.4383 1.11938L12.2723 2.12508L11.6366 5.80068C10.4468 6.29979 9.38124 6.98259 8.41835 7.78723L4.70748 6.67232L3.71066 6.39577L3.22508 7.29606L0.830651 11.6041L0.345075 12.5044L1.11583 13.1343L4.03489 15.467C3.951 16.0997 3.83749 16.7334 3.8583 17.3965C3.87911 18.0597 4.03214 18.685 4.15555 19.3112L1.38852 21.8224L0.658779 22.4994L1.19986 23.3675L3.85973 27.5169L4.40081 28.3849L5.37832 28.0464L9.01198 26.701C10.0234 27.4437 11.1297 28.0583 12.3485 28.4818L13.2134 32.1103L13.4422 33.1036L20.5498 32.8806L20.7158 31.8748L21.3515 28.1993C22.5413 27.7001 23.6069 27.0173 24.5698 26.2127L28.2806 27.3276L29.2774 27.6042L29.763 26.7039L32.1575 22.3959L32.643 21.4956L31.8723 20.8656L28.9532 18.5329C29.0371 17.9002 29.1506 17.2665 29.1298 16.6034C29.109 15.9402 28.956 15.3149 28.8326 14.6887L31.5996 12.1776L32.3293 11.5005L31.7882 10.6324L29.1284 6.48306L28.5873 5.61499L27.6098 5.95352L23.9761 7.29894C22.9647 6.55626 21.8584 5.94162 20.6396 5.51811L19.7747 1.88961L19.5459 0.8963L12.4383 1.11938ZM14.5688 3.51526L17.5698 3.42107L18.3018 6.59198L18.4826 7.31743L19.2006 7.52578C20.6507 7.91798 21.977 8.61711 23.0984 9.55835L23.6669 10.0408L24.3704 9.78779L27.5351 8.61101L29.114 11.0627L26.6556 13.3332L26.0778 13.8131L26.2982 14.5373C26.4831 15.2338 26.5796 15.9475 26.6027 16.6827C26.6257 17.4179 26.5742 18.1362 26.4333 18.8429L26.2983 19.5783L26.8656 20.0222L29.4615 22.1342L28.0394 24.68L24.8072 23.704L24.0892 23.4957L23.5521 24.0128C22.4919 25.0225 21.212 25.8034 19.7894 26.2858L19.0859 26.5387L18.9509 27.2741L18.4193 30.4847L15.4183 30.5789L14.6863 27.408L14.5055 26.6825L13.7875 26.4742C12.3374 26.0819 11.0111 25.3828 9.88968 24.4416L9.32118 23.9592L8.61766 24.2121L5.45302 25.3889L3.8741 22.9372L6.33247 20.6667L6.9103 20.1868L6.68994 19.4626C6.50504 18.7661 6.40853 18.0524 6.38545 17.3172C6.36237 16.582 6.41394 15.8637 6.5548 15.157L6.72931 14.4204L6.12253 13.9777L3.52661 11.8658L4.94868 9.31991L8.18089 10.2959L8.89889 10.5043L9.43602 9.98716C10.4962 8.97744 11.7761 8.19652 13.1987 7.71416L13.9022 7.46119L14.0372 6.72583L14.5688 3.51526ZM16.301 10.8491C12.8262 10.9582 10.07 13.8153 10.1762 17.1983C10.2824 20.5812 13.2123 23.2598 16.6871 23.1508C20.1619 23.0417 22.9181 20.1846 22.8119 16.8017C22.7058 13.4187 19.7758 10.7401 16.301 10.8491ZM16.3782 13.3095C18.4858 13.2433 20.2204 14.8291 20.2848 16.881C20.3492 18.9329 18.7175 20.6243 16.6099 20.6905C14.5023 20.7566 12.7677 19.1708 12.7033 17.1189C12.6389 15.0671 14.2706 13.3756 16.3782 13.3095Z" fill="black"/>
</svg>
